<?xml version="1.0" encoding="UTF-8"?>
<svg id="Layer_1" xmlns="http://www.w3.org/2000/svg" viewBox="0 0 445.53 68.71">
  <path d="M34.76,11.65c-3.73-2-5.92-2.64-8.74-2.64s-4.82.91-6.19,2.82c-1.64,2.37-2.09,4.55-2.09,10.92v2.46h8.92v8.01h-8.92v34.31H6.92v-34.31H0v-6.92l6.92-1.09v-5.46C6.92,7.28,13.65,0,25.3,0c1.55,0,3.37.18,5.19.46,3.18.55,4.91,1.09,9.01,3l-4.73,8.19Z" style="fill:#00a19b;"/>
  <path d="M53.51,38.13c-1.18-.91-2.09-1.27-3.28-1.27-1.73,0-3.64,1.18-5.28,3.18-2,2.46-2.91,4.92-2.91,8.1v19.38h-10.83V25.21h9.37l.46,9.28c4.09-7.19,6.73-9.92,10.01-9.92,2.28,0,4.19,1,5.92,3l-3.46,10.56Z" style="fill:#00a19b;"/>
  <path d="M95,68.07h-2.27c-5.46,0-7.19-.91-9.1-4.64-4,3.64-7.55,5.19-11.83,5.19-7.19,0-12.29-4.73-12.29-11.47,0-1.46.27-2.91.73-4.28,1.46-3.91,4-5.92,10.19-7.74l12.01-3.46v-3.55c0-4.55-1.64-6.64-5.19-6.64-3.28,0-5.92,1.73-5.92,3.82,0,.36.09.55.27,1.09l-10.38,2.28c-.46-1.27-.54-1.73-.54-2.91,0-7.46,6.55-11.74,18.02-11.74,10.1,0,14.65,4.19,14.65,13.47v17.65c0,3.82.46,4.46,3.37,4.73l-1.73,8.19ZM82.45,48.69l-10.83,3.55c-.64,1.64-.82,2.46-.82,3.55,0,2.73,1.64,4.37,4.37,4.37,1.37,0,3-.46,4.46-1.27.73-.36,1.27-.73,2.82-1.91v-8.28Z" style="fill:#00a19b;"/>
  <path d="M102.1,67.52v-8.01l20.57-25.75h-20.57v-8.55h34.31v6.83l-21.75,26.94h21.75v8.55h-34.31Z" style="fill:#00a19b;"/>
  <path d="M173.54,65.7c-4.46,2-9.01,3-13.92,3-12.56,0-20.48-8.28-20.48-21.2s9.1-23.48,21.2-23.48c10.47,0,17.75,7.92,17.75,19.38v4.64h-28.03c.18,3.55.46,5,1.46,6.73,1.82,3.09,5.46,5.1,9.46,5.1,1.64,0,3.28-.18,5.01-.73,2.55-.73,4.19-1.55,8.1-4l4,8.28c-2,1.09-3.55,1.82-4.55,2.27ZM159.61,32.21c-4.82,0-8.1,3.28-9.01,9.01h16.56c-.27-6.46-2.46-9.01-7.55-9.01Z" style="fill:#00a19b;"/>
  <path d="M206.57,38.13c-1.18-.91-2.09-1.27-3.28-1.27-1.73,0-3.64,1.18-5.28,3.18-2,2.46-2.91,4.92-2.91,8.1v19.38h-10.83V25.21h9.37l.46,9.28c4.09-7.19,6.73-9.92,10.01-9.92,2.28,0,4.19,1,5.92,3l-3.46,10.56Z" style="fill:#00a19b;"/>
  <path d="M263.44,67.52h-10.83l-6.92-24.48-6.92,24.48h-10.92l-13.47-42.32h11.47l7.83,29.85.09,1.18.09-1.18,7.01-24.93-1.27-4.91h10.92l7.28,29.76v1.27l.18-1.27,8.1-29.76h10.83l-13.47,42.32Z" style="fill:#888b8d;"/>
  <path d="M313.67,68.07h-2.28c-5.46,0-7.19-.91-9.1-4.64-4,3.64-7.55,5.19-11.83,5.19-7.19,0-12.29-4.73-12.29-11.47,0-1.46.27-2.91.73-4.28,1.46-3.91,4-5.92,10.19-7.74l12.01-3.46v-3.55c0-4.55-1.64-6.64-5.19-6.64-3.28,0-5.92,1.73-5.92,3.82,0,.36.09.55.27,1.09l-10.38,2.28c-.46-1.27-.55-1.73-.55-2.91,0-7.46,6.55-11.74,18.02-11.74,10.1,0,14.65,4.19,14.65,13.47v17.65c0,3.82.46,4.46,3.37,4.73l-1.73,8.19ZM301.12,48.69l-10.83,3.55c-.64,1.64-.82,2.46-.82,3.55,0,2.73,1.64,4.37,4.37,4.37,1.37,0,3-.46,4.46-1.27.73-.36,1.27-.73,2.82-1.91v-8.28Z" style="fill:#888b8d;"/>
  <path d="M320.13,67.52V1.18h10.83v66.34h-10.83Z" style="fill:#888b8d;"/>
  <path d="M363.45,67.52l-13.2-21.75v21.75h-10.83V1.18h10.83v42.32l13.2-18.29h12.19l-15.2,19.47,15.38,22.84h-12.38Z" style="fill:#888b8d;"/>
  <path d="M409.95,65.7c-4.46,2-9.01,3-13.92,3-12.56,0-20.48-8.28-20.48-21.2s9.1-23.48,21.2-23.48c10.47,0,17.75,7.92,17.75,19.38v4.64h-28.03c.18,3.55.46,5,1.46,6.73,1.82,3.09,5.46,5.1,9.46,5.1,1.64,0,3.28-.18,5.01-.73,2.55-.73,4.19-1.55,8.1-4l4,8.28c-2,1.09-3.55,1.82-4.55,2.27ZM396.03,32.21c-4.82,0-8.1,3.28-9.01,9.01h16.56c-.27-6.46-2.46-9.01-7.55-9.01Z" style="fill:#888b8d;"/>
  <path d="M442.07,38.13c-1.18-.91-2.09-1.27-3.28-1.27-1.73,0-3.64,1.18-5.28,3.18-2,2.46-2.91,4.92-2.91,8.1v19.38h-10.83V25.21h9.37l.46,9.28c4.09-7.19,6.73-9.92,10.01-9.92,2.28,0,4.19,1,5.92,3l-3.46,10.56Z" style="fill:#888b8d;"/>
</svg>
